<svg width="5" height="20" viewBox="0 0 5 20" version="1.1" xmlns="http://www.w3.org/2000/svg" xmlns:xlink="http://www.w3.org/1999/xlink">
<g id="Canvas" fill="none">
<g id="Icon">
<path fill-rule="evenodd" clip-rule="evenodd" d="M 2.01703 3.54053C 3.131 3.54053 4.03406 2.74796 4.03406 1.77026C 4.03406 0.792572 3.131 0 2.01703 0C 0.903061 0 0 0.792572 0 1.77026C 0 2.74796 0.903061 3.54053 2.01703 3.54053ZM 2.01703 11.3297C 3.131 11.3297 4.03406 10.5371 4.03406 9.55942C 4.03406 8.58173 3.131 7.78915 2.01703 7.78915C 0.903061 7.78915 0 8.58173 0 9.55942C 0 10.5371 0.903061 11.3297 2.01703 11.3297ZM 4.03406 17.3486C 4.03406 18.3263 3.131 19.1188 2.01703 19.1188C 0.903061 19.1188 0 18.3263 0 17.3486C 0 16.3709 0.903061 15.5783 2.01703 15.5783C 3.131 15.5783 4.03406 16.3709 4.03406 17.3486Z" transform="translate(0.644272 0.68103)" fill="#007AFF"/>
</g>
</g>
</svg>

