<svg width="13" height="22" viewBox="0 0 13 22" version="1.1" xmlns="http://www.w3.org/2000/svg" xmlns:xlink="http://www.w3.org/1999/xlink">
<g id="Canvas" fill="none">
<g id="Icon">
<mask id="mask0" mask-type="alpha" maskUnits="userSpaceOnUse" x="0" y="0" width="13" height="22">
<g id="Back">
<path fill-rule="evenodd" clip-rule="evenodd" d="M 9.75946 0.412269L 0.395654 9.40223C -0.131885 9.90796 -0.131885 10.7522 0.395654 11.26L 9.75946 20.2479C 10.3337 20.7993 11.2403 20.7993 11.8146 20.2479C 12.4221 19.6643 12.4221 18.6923 11.8146 18.1077L 3.97212 10.5788C 3.82985 10.4428 3.82985 10.2174 3.97212 10.0814L 11.8146 2.55254C 12.4221 1.96892 12.4221 0.996923 11.8146 0.412269C 11.5269 0.138115 11.1572 0 10.7875 0C 10.4168 0 10.0471 0.138115 9.75946 0.412269Z" transform="translate(0.571152 0.573242)" fill="white"/>
</g>
</mask>
<g mask="url(#mask0)">
<g id="Back_2">
<path fill-rule="evenodd" clip-rule="evenodd" d="M 9.75946 0.412269L 0.395654 9.40223C -0.131885 9.90796 -0.131885 10.7522 0.395654 11.26L 9.75946 20.2479C 10.3337 20.7993 11.2403 20.7993 11.8146 20.2479C 12.4221 19.6643 12.4221 18.6923 11.8146 18.1077L 3.97212 10.5788C 3.82985 10.4428 3.82985 10.2174 3.97212 10.0814L 11.8146 2.55254C 12.4221 1.96892 12.4221 0.996923 11.8146 0.412269C 11.5269 0.138115 11.1572 0 10.7875 0C 10.4168 0 10.0471 0.138115 9.75946 0.412269Z" transform="translate(0.571152 0.573242)" fill="#007AFF"/>
</g>
</g>
</g>
</g>
</svg>

